<svg xmlns="http://www.w3.org/2000/svg" width="103.68" height="135.11" viewBox="0 0 103.68 135.11">
  <g id="Group_306" data-name="Group 306" transform="translate(-1099.736 -1183)">
    <path id="Path_332" data-name="Path 332" d="M859.335,30.4l-.1,1.488a2.18,2.18,0,0,0,.742,3.064l1.224.807c.712.529,1.239,1.261,1.979,1.758h0a13.6,13.6,0,0,1,2.221,1.945c.022,2.518-1.715,4.391-2.542,6.6A2.769,2.769,0,0,0,863.059,49c1.121,1.591,2.11,3.274,3.236,4.861A1.417,1.417,0,0,1,866.124,56c-.318.3-.524.737-.875.974-4.335,2.925-4.29,6.745-2.307,10.957.692,1.47.417,2.479-1.16,3.167-.958.418-1.75,1.242-2.724,1.589-2.939,1.046-3.46,3.206-3.269,5.953.1,1.479.534,3.227-.276,4.437-.854,1.276-2.811.838-4.219,1.381a11.357,11.357,0,0,1-2.4.6,2.311,2.311,0,0,0-2.26,2.1,17.377,17.377,0,0,1-1.543,5.6,2.078,2.078,0,0,1-2.539,1.471c-.187-.034-.377-.061-.566-.088-3.988-.579-7.362-.277-9.536,4-1.535,3.019-2.21,3.182-5.207,1.684-3.987-1.993-7-1.224-10,1.743-1.655,1.637-2.6,1.5-4.614.334a21.3,21.3,0,0,1-3.278-2.586,3.139,3.139,0,0,0-3.687-.561c-1.507.68-3.125,1.073-4.658,1.689a2.153,2.153,0,0,1-2.934-.948c-.711-1.12-1.6-2.125-2.3-3.246a4.274,4.274,0,0,0-4.433-2.242c-1.321.139-2.668-.024-3.991.245a2.267,2.267,0,0,1-2.838-1.6,11.779,11.779,0,0,1-1.031-4c-.136-2.384-1.437-3.61-3.807-3.875-.747-.083-1.458-.449-2.2-.585-4.464-.811-3.536-.569-3.6-4.587-.083-5.105-.016-5.106-4.62-7.706-.055-.031-.115-.053-.17-.084-3.08-1.773-3.191-1.849-1.927-5.125.5-1.3.5-2.69,1.161-3.949.6-1.148-.379-2.006-1.045-2.791-1.14-1.343-2.36-2.622-3.589-3.887a1.5,1.5,0,0,1-.241-2.269c1.413-2.006,3.388-4.037,3.716-6.262.316-2.156-1.613-4.375-2.631-6.527a1.687,1.687,0,0,1,.516-2.425,28.1,28.1,0,0,1,3.159-2.65c2.28-1.234,2.7-2.866,2.124-5.114-.2-.787-.2-1.621-.32-2.429-.586-3.877-.889-2.791,2.928-4.647a5.877,5.877,0,0,1,1.264-.393c2.98-.679,4.015-2.63,4.3-5.541.457-4.655.619-4.784,5.384-5.042,2.922-.158,5.058-.878,6.048-3.913A8.29,8.29,0,0,1,792.3,4.859c1.218-.921,2.854.393,4.333.557a3.114,3.114,0,0,1,.943.093c3.227,1.534,4.932-.7,6.644-2.694,2.6-3.027,2.732-3.32,5.887-1.2,3.328,2.236,6.126,2.27,9.464.031,3.419-2.293,3.1-2.384,5.6.959,2.739,3.661,5.936,3.638,9.6,2.425,1.862-.616,3.1-.512,3.879,1.542.64,1.692,1.584,3.271,2.394,4.9,1.22.985,2.722.636,4.1.881a9.131,9.131,0,0,1,1.984.5l2.257.128c1.716.218,1.505,1.495,1.492,2.662l.14,1.131c.155,1.116.633,2.148.766,3.287a3.2,3.2,0,0,0,2.215,2.615,5.328,5.328,0,0,1,2.065.914,1.068,1.068,0,0,0,.3.223c3.707,1.472,4.2,2.556,2.965,6.59" transform="translate(336.713 1183)" fill="#6d767e"/>
    <path id="Path_333" data-name="Path 333" d="M966.236,300.626q5.678,14.325,11.373,28.644c.557,1.391.005,1.539-1.179,1.451-6.078-.45-12.161-.832-18.236-1.319a3.162,3.162,0,0,0-2.914,1.125c-3.906,4.328-7.886,8.589-11.828,12.885-1.565,1.706-1.584,1.722-2.409-.371-2.617-6.64-5.212-13.288-7.843-19.922-.224-.564-.189-1.352-1.008-1.551-1.03-1.027-.742-2.036.159-2.906a37.361,37.361,0,0,1,6.122-4.557,3.254,3.254,0,0,1,3.207.157,39.109,39.109,0,0,0,4.641,1.565,2.024,2.024,0,0,0,2.541-.873c1-1.454,2.138-2.817,3.076-4.311a2.608,2.608,0,0,1,2.438-1.321,47.161,47.161,0,0,1,5.685.079,2.12,2.12,0,0,0,2.612-1.694c.535-1.546.929-3.136,1.513-4.664.4-1.043.776-2.114,2.052-2.417" transform="translate(217.911 972.616)" fill="#c21c25"/>
    <path id="Path_334" data-name="Path 334" d="M827.293,340.861l-4.924,11.63c-3.482-4.021-6.725-7.767-9.97-11.51a20.57,20.57,0,0,1-2.3-2.677c-1.216-2.033-2.92-2.4-5.137-2.239-4.964.356-9.945.495-14.919.7-1.036.043-2.076.006-3.484.006l11.456-25.939c1.3-.079,1.86.763,2.247,1.809.613,1.658,1.3,3.288,1.759,5a2.192,2.192,0,0,0,2.439,1.792c1.7-.039,3.406.014,5.108-.01a3.809,3.809,0,0,1,3.378,1.623c.7.95,1.45,1.855,2.113,2.833,1.817,2.682,1.824,2.676,4.94,1.544,1.169-.424,2.3-.951,3.506-1.277,2.626-.711,4.188.455,4.317,3.192.213,4.522-.324,9.014-.53,13.519" transform="translate(320.572 965.619)" fill="#c21c25"/>
    <path id="Path_335" data-name="Path 335" d="M850.916,325.734c-.786-1.683-.478-3.488-.252-5.174a75.4,75.4,0,0,0,.205-9.207,2.123,2.123,0,0,0-2.952-1.961,41.218,41.218,0,0,0-5.424,2.108c-1.289.653-1.988.174-2.671-.815-1.058-1.532-2.165-3.031-3.131-4.625a2.339,2.339,0,0,0-2.339-1.229c-1.935.059-3.873-.022-5.806.063a1.61,1.61,0,0,1-1.922-1.32c-.522-1.807-1.246-3.551-1.746-5.363a3.838,3.838,0,0,0-1.86-2.5l2.14-5.389a16.065,16.065,0,0,1,1.449,4.025,1.681,1.681,0,0,0,2.112,1.351c1.421-.172,2.879-.075,4.282-.332,2.162-.4,3.524.515,4.567,2.415.713,1.3,1.664,2.45,2.433,3.717a1.454,1.454,0,0,0,2.186.671,29.852,29.852,0,0,0,2.957-1.2c2.982-1.9,5.4-.941,7.484,1.53a16.085,16.085,0,0,0,2.577,1.9c.843.689,1.637-.02,2.3-.531,1.409-1.079,2.81-2.183,4.122-3.385a2.267,2.267,0,0,1,2.733-.453c1.731.739,3.538,1.286,5.253,2.06a1.723,1.723,0,0,0,2.486-.842c1.009-1.574,2.171-3.044,3.119-4.654a2.127,2.127,0,0,1,2.268-1.255c1.986.187,4-.075,5.972.333,1.1.228,1.574-.356,1.889-1.364.581-1.857,1.24-3.688,1.865-5.529l1.358,3.725c-1.955,2.069-2.042,4.98-3.007,7.49-.567,1.474-.973,2.217-2.771,1.841a30.7,30.7,0,0,0-5.974-.132,1.16,1.16,0,0,0-1.2.678,30.542,30.542,0,0,1-1.959,2.847c-2.772,3.9-3.2,4.118-7.477,1.884-2.173-1.136-3.914-1.238-5.723.584a29.072,29.072,0,0,1-3,2.321c-1.108.856-1.856,1.873-1.335,3.43l-5.219,12.294" transform="translate(295.57 980.745)" fill="#9d0c1a"/>
    <path id="Path_336" data-name="Path 336" d="M888.225,77.606c1.611.684,2.411,2.223,3.366,3.488,4.624,6.123,6.868,13.085,7.672,20.732a43.684,43.684,0,0,1-1.414,16.837,39.244,39.244,0,0,1-6.227,13.023c-4.136,5.453-8.809,10.191-14.918,13.521a44.325,44.325,0,0,1-13.634,4.935,45.41,45.41,0,0,1-19.967-.864,35.667,35.667,0,0,1-10.712-4.513,51.6,51.6,0,0,1-11-9.789c-.6-.73-1.755-1.038-1.788-2.221a50.981,50.981,0,0,0,5.856-4.815,3.4,3.4,0,0,1,2.637-1.1c1.729.306,2.518,1.848,3.592,2.918a32.825,32.825,0,0,0,19.615,9.819A32.2,32.2,0,0,0,872.69,134.8a32.76,32.76,0,0,0,14.335-18.671,21.116,21.116,0,0,0,.958-6.474c.016-2.031-.1-4.07.024-6.094.31-5.163-1.792-9.573-4.232-13.867-1.063-1.871-2.37-3.6-3.345-5.535a1.249,1.249,0,0,1,.3-1.083c1.945-2.072,4.338-3.629,6.431-5.533a.775.775,0,0,1,1.064.064" transform="translate(294.674 1128.39)" fill="#c5c9ac"/>
    <path id="Path_337" data-name="Path 337" d="M808.923,118.213c-2.332.567-3.443,2.778-5.32,3.971-.967.615-1.739,1.548-3,1.606a49.451,49.451,0,0,1-5.837-10.538,49.352,49.352,0,0,1-2.432-10.233,41.969,41.969,0,0,1,.486-14.6,33.682,33.682,0,0,1,3.684-10.47,58.411,58.411,0,0,1,4.762-7.809,25.544,25.544,0,0,1,4.417-4.627,1.936,1.936,0,0,0,.869-1.228c3.649.034,7.485,3.762,7.877,7.651a3.07,3.07,0,0,1-1.159,1.757,31.743,31.743,0,0,0-9.459,16.826,33.182,33.182,0,0,0,2.032,20.555c.746,1.671,1.774,3.2,2.664,4.8.4.718,1.04,1.424.414,2.336" transform="translate(316.91 1138.913)" fill="#b1afa0"/>
    <path id="Path_338" data-name="Path 338" d="M924.555,44.433c-1.756.281-2.453,1.966-3.745,2.881-1.386.982-2.942,1.879-3.842,3.445-.817.448-1.2-.232-1.626-.67a32.468,32.468,0,0,0-19.281-9.659,33.384,33.384,0,0,0-19.808,3.445c-.749.376-1.442.942-2.371.726-.981-1.025-.013-1.679.539-2.28a10.92,10.92,0,0,1,5.337-2.836,11.865,11.865,0,0,1-5.293-2.752c-.979-.841-2.07-1.649-1.864-3.194,3.819-2.424,8.148-3.3,12.5-4.057a44.387,44.387,0,0,1,13.476.048,60.933,60.933,0,0,1,7.376,1.9c.541.054,1.127-.062,1.557.411l.753.076c.3.2.569.447.855.669,2.72.392,4.526,2.485,6.8,3.7,2.952,1.573,5.3,3.963,7.657,6.3a2.649,2.649,0,0,1,.972,1.849" transform="translate(259.554 1163.122)" fill="#b1afa0"/>
    <path id="Path_339" data-name="Path 339" d="M846.732,36.015c1.467,3.473,4.484,4.832,8.117,5.777-2.7,1.46-5.99,1.768-7.13,5q-.014.128-.026.257a8.6,8.6,0,0,1-.66,1.139,13.2,13.2,0,0,0-1.442,3.2c-.155.452-.21,1.147-.934,1.018-.581-.1-.8-.648-.852-1.186a6.722,6.722,0,0,0-.275-1.331c-.92-4.07-3.813-6.117-7.519-7.33l-1.156-.779c5.1-1.1,8.1-4.31,9.718-9.179,1.037,1.159.9,2.747,2.161,3.418" transform="translate(286.613 1160.646)" fill="#fff"/>
    <path id="Path_340" data-name="Path 340" d="M836.688,70.586c.807.438.61,1.468,1.12,2.327.656-1.7.844-3.4,2.036-4.581a1.478,1.478,0,0,0,.839-.792l-.007-.051c1.725.058,2.936-1.265,4.387-1.906a30.769,30.769,0,0,1,26.16.243,27.989,27.989,0,0,1,9.751,7.311c.29.338.472.779.983.8a47.194,47.194,0,0,1,7.382,15.231,6.142,6.142,0,0,1,.105,1.559c.009,3.211-.052,6.424.019,9.634.129,5.817-2.433,10.625-5.219,15.3a30.844,30.844,0,0,1-6.311,7.136,31.8,31.8,0,0,1-14.332,7,27.991,27.991,0,0,1-13.963-.479,33.54,33.54,0,0,1-12.373-6.854c-1.971-1.623-3.194-4.059-5.481-5.286-.255-2.019-1.587-3.516-2.477-5.178a31.643,31.643,0,0,1-3.51-12.761c-.715-9.429,2.179-17.674,7.755-24.962a12.688,12.688,0,0,1,2.056-1.97,2.278,2.278,0,0,0,1.078-1.724" transform="translate(293.737 1139.944)" fill="#535555"/>
    <path id="Path_341" data-name="Path 341" d="M873.9,77.9c.089.688-.28.868-.88.792.084-.5.289-.86.88-.792" transform="translate(260.224 1129.581)" fill="#b1afa0"/>
    <path id="Path_342" data-name="Path 342" d="M869.173,79.28c13.706-.585,26.908,12.812,26.76,28.821-.137,14.95-12.548,28.927-28.07,28.391-13.858-.479-26.287-13.535-26.014-29.258.263-15.194,12.479-28.546,27.324-27.954" transform="translate(282.659 1127.364)" fill="#b1afa0"/>
    <path id="Path_343" data-name="Path 343" d="M910.482,151.053a16.9,16.9,0,0,1-3.463,1.184,17.276,17.276,0,0,1-3.865.425,21.813,21.813,0,0,1-11.3-3.44l3.976-9.025,2.01.581q-.179.894-.245,1.452a7.839,7.839,0,0,0-.067.871,4.189,4.189,0,0,0,.358,1.765,5.424,5.424,0,0,0,.983,1.452,4.821,4.821,0,0,0,3.351,1.251,5.028,5.028,0,0,0,4.244-1.921,7.624,7.624,0,0,0,1.43-4.825,4.91,4.91,0,0,0-1.743-4.155,7.311,7.311,0,0,0-4.646-1.34q-.4,0-1.5.112t-3.239.469l8.534-8.444h-4.021a8.52,8.52,0,0,0-1.318.089,7.915,7.915,0,0,0-1.005.223l.045-.045a6.139,6.139,0,0,0-1.921,2.011l-1.7-.4,2.1-10.857,1.876,1.475h15.637v1.028a4.275,4.275,0,0,0,.268,1.117v-.045a3.149,3.149,0,0,0,1.072,1.385l-5.719,5.763a11.071,11.071,0,0,1,3.4,1.966,11.3,11.3,0,0,1,3.8,8.757q0,7.506-7.327,11.125m3.262-19.569a12.226,12.226,0,0,0-3.887-2.145l5.853-5.853a3.033,3.033,0,0,1-.893-1.251,6.072,6.072,0,0,1-.223-1.251v-.626H899.267a6.528,6.528,0,0,1-1.474-1.117l-1.921,9.829.983.268a5.447,5.447,0,0,1,1.966-1.966,7.029,7.029,0,0,1,2.457-.358h5.049l-8.31,8.221q1.3-.178,2.122-.246t1.362-.067a7.841,7.841,0,0,1,4.915,1.385,5.406,5.406,0,0,1,1.921,4.512,8.216,8.216,0,0,1-1.519,5.093,5.576,5.576,0,0,1-4.6,2.055,5.182,5.182,0,0,1-3.619-1.34,4.814,4.814,0,0,1-1.474-3.53q0-.268.045-.759a9.234,9.234,0,0,1,.223-1.251l-1.3-.4-3.753,8.355a20.88,20.88,0,0,0,10.812,3.172,17.993,17.993,0,0,0,3.753-.38,13.362,13.362,0,0,0,3.351-1.184q7.1-3.485,7.1-10.723a10.757,10.757,0,0,0-3.619-8.444m-3.619,18.809a15.923,15.923,0,0,1-6.97,1.519,19.378,19.378,0,0,1-10.276-2.949l3.4-7.684.58.178a13.847,13.847,0,0,0-.134,1.742,5.222,5.222,0,0,0,1.563,3.842,6.235,6.235,0,0,0,8.846-.8,8.258,8.258,0,0,0,1.609-5.317,5.625,5.625,0,0,0-2.1-4.825,8.058,8.058,0,0,0-5.138-1.519q-.492,0-1.072.045t-1.206.134l8.131-8.042h-6.076a7.749,7.749,0,0,0-2.591.357,5.273,5.273,0,0,0-1.966,1.832l-.358-.09,1.7-8.712.737.536a2.916,2.916,0,0,0,.335.223,7.811,7.811,0,0,0,1.206.045h13.806v.179a4.552,4.552,0,0,0,.313,1.385q.357.983.625,1.117l-6.031,6.076a12.557,12.557,0,0,1,4.423,2.278,10.28,10.28,0,0,1,3.485,8.087q0,6.97-6.836,10.365" transform="translate(246.746 1100.252)" fill="#040504"/>
  </g>
</svg>
