<svg xmlns="http://www.w3.org/2000/svg" width="103.676" height="135.104" viewBox="0 0 103.676 135.104">
  <g id="Group_308" data-name="Group 308" transform="translate(-336.713 -1183)">
    <path id="Path_302" data-name="Path 302" d="M96.308,30.691l-.1,1.5a2.212,2.212,0,0,0,.742,3.093l1.224.815c.711.534,1.239,1.273,1.979,1.774h0a13.636,13.636,0,0,1,2.221,1.963c.022,2.542-1.715,4.432-2.542,6.66a2.817,2.817,0,0,0,.21,2.965c1.121,1.606,2.109,3.3,3.236,4.907a1.439,1.439,0,0,1-.171,2.163c-.318.3-.524.744-.875.984-4.335,2.952-4.289,6.809-2.307,11.061.692,1.484.417,2.5-1.16,3.2-.958.422-1.75,1.254-2.723,1.6-2.938,1.056-3.459,3.236-3.269,6.009.1,1.493.534,3.257-.276,4.479-.854,1.288-2.811.846-4.219,1.394a11.262,11.262,0,0,1-2.4.6,2.32,2.32,0,0,0-2.26,2.123,17.673,17.673,0,0,1-1.543,5.653,2.076,2.076,0,0,1-2.539,1.484c-.187-.034-.377-.061-.566-.089-3.988-.584-7.361-.279-9.535,4.036-1.535,3.048-2.21,3.212-5.207,1.7-3.987-2.012-7-1.235-10,1.76-1.654,1.652-2.6,1.514-4.614.337a21.33,21.33,0,0,1-3.278-2.611,3.117,3.117,0,0,0-3.687-.566c-1.507.686-3.125,1.083-4.658,1.705a2.144,2.144,0,0,1-2.934-.957c-.711-1.131-1.6-2.145-2.3-3.276A4.263,4.263,0,0,0,28.318,94.9c-1.321.14-2.668-.025-3.991.247a2.265,2.265,0,0,1-2.838-1.62,11.979,11.979,0,0,1-1.031-4.042c-.136-2.406-1.437-3.644-3.807-3.912-.747-.084-1.458-.454-2.2-.59-4.464-.819-3.536-.574-3.6-4.631-.083-5.154-.016-5.155-4.62-7.779-.055-.031-.115-.053-.17-.085-3.08-1.79-3.191-1.867-1.927-5.174.5-1.309.5-2.716,1.161-3.987.6-1.159-.379-2.025-1.045-2.817C3.1,59.155,1.885,57.865.656,56.587A1.518,1.518,0,0,1,.415,54.3C1.828,52.272,3.8,50.221,4.13,47.975c.317-2.176-1.612-4.416-2.63-6.589a1.712,1.712,0,0,1,.516-2.448,28.149,28.149,0,0,1,3.159-2.675c2.28-1.246,2.7-2.894,2.124-5.163-.2-.794-.2-1.637-.32-2.452-.586-3.913-.889-2.817,2.928-4.691a5.837,5.837,0,0,1,1.264-.4c2.98-.685,4.015-2.654,4.3-5.594.457-4.7.619-4.829,5.384-5.09,2.922-.16,5.058-.887,6.048-3.95a8.383,8.383,0,0,1,2.375-4.02c1.218-.93,2.853.4,4.333.563a3.087,3.087,0,0,1,.943.094c3.227,1.549,4.931-.707,6.644-2.72C43.8-.214,43.931-.51,47.086,1.63c3.328,2.257,6.126,2.292,9.464.032,3.419-2.315,3.1-2.406,5.6.968,2.739,3.7,5.935,3.673,9.6,2.448,1.862-.622,3.1-.516,3.879,1.556.64,1.708,1.584,3.3,2.394,4.946,1.22.994,2.722.642,4.1.89a9.062,9.062,0,0,1,1.984.5l2.257.129c1.716.22,1.5,1.509,1.492,2.688L88,16.933c.155,1.127.633,2.169.766,3.318a3.223,3.223,0,0,0,2.215,2.64,5.3,5.3,0,0,1,2.065.923,1.069,1.069,0,0,0,.3.225c3.707,1.486,4.2,2.581,2.965,6.652" transform="translate(336.713 1183)" fill="#f79604"/>
    <path id="Path_303" data-name="Path 303" d="M202.16,300.626q5.505,13.891,11.028,27.775c.54,1.349.005,1.492-1.143,1.407-5.894-.437-11.792-.807-17.683-1.279a3.067,3.067,0,0,0-2.826,1.091c-3.788,4.2-7.647,8.329-11.47,12.494-1.518,1.654-1.536,1.67-2.335-.36-2.537-6.438-5.054-12.885-7.6-19.318-.217-.547-.183-1.311-.977-1.5-1-1-.72-1.975.154-2.818a36.224,36.224,0,0,1,5.936-4.418,3.156,3.156,0,0,1,3.109.153,37.918,37.918,0,0,0,4.5,1.517,1.963,1.963,0,0,0,2.464-.846c.972-1.41,2.073-2.731,2.983-4.18a2.529,2.529,0,0,1,2.364-1.281,45.729,45.729,0,0,1,5.513.076,2.056,2.056,0,0,0,2.532-1.643c.519-1.5.9-3.041,1.467-4.523.387-1.011.753-2.049,1.989-2.344" transform="translate(219.544 973.972)" fill="#c21c25"/>
    <path id="Path_304" data-name="Path 304" d="M63.035,339.949l-4.774,11.277c-3.376-3.9-6.52-7.531-9.667-11.161a19.95,19.95,0,0,1-2.231-2.6c-1.179-1.971-2.832-2.325-4.981-2.171-4.814.346-9.643.48-14.466.682-1,.042-2.013.006-3.378.006l11.108-25.152c1.258-.077,1.8.739,2.179,1.754.594,1.607,1.263,3.189,1.706,4.849a2.125,2.125,0,0,0,2.365,1.738c1.65-.038,3.3.014,4.953-.01a3.694,3.694,0,0,1,3.276,1.574c.674.921,1.406,1.8,2.048,2.747,1.762,2.6,1.768,2.6,4.79,1.5,1.133-.412,2.232-.922,3.4-1.238,2.547-.69,4.061.441,4.186,3.095.206,4.385-.314,8.74-.514,13.109" transform="translate(320.347 966.878)" fill="#c21c25"/>
    <path id="Path_305" data-name="Path 305" d="M88.384,324.613c-.8-1.632-.486-3.382-.256-5.017a69.642,69.642,0,0,0,.209-8.927,2.151,2.151,0,0,0-3-1.9,43.226,43.226,0,0,0-5.52,2.044,1.887,1.887,0,0,1-2.718-.79c-1.076-1.485-2.2-2.939-3.186-4.485a2.413,2.413,0,0,0-2.38-1.192c-1.968.057-3.941-.021-5.908.062a1.635,1.635,0,0,1-1.956-1.28c-.531-1.752-1.268-3.443-1.776-5.2a3.745,3.745,0,0,0-1.893-2.427l2.178-5.226a15.115,15.115,0,0,1,1.474,3.9,1.712,1.712,0,0,0,2.149,1.31c1.446-.167,2.93-.073,4.357-.322,2.2-.384,3.586.5,4.647,2.342.725,1.259,1.693,2.376,2.476,3.6a1.512,1.512,0,0,0,2.224.65A31.222,31.222,0,0,0,82.51,300.6c3.034-1.84,5.495-.913,7.616,1.484a16.348,16.348,0,0,0,2.622,1.839c.858.668,1.666-.019,2.346-.515,1.434-1.046,2.859-2.116,4.2-3.282a2.39,2.39,0,0,1,2.781-.439c1.761.717,3.6,1.247,5.346,2a1.79,1.79,0,0,0,2.529-.816c1.027-1.526,2.209-2.952,3.173-4.513a2.187,2.187,0,0,1,2.308-1.217c2.02.181,4.068-.073,6.077.323,1.124.221,1.6-.345,1.923-1.323.591-1.8,1.261-3.576,1.9-5.362l1.381,3.612c-1.989,2.006-2.078,4.829-3.059,7.263-.576,1.43-.99,2.15-2.82,1.785a32.769,32.769,0,0,0-6.079-.128,1.194,1.194,0,0,0-1.22.658,29.523,29.523,0,0,1-1.994,2.761c-2.82,3.782-3.26,3.993-7.608,1.827-2.211-1.1-3.983-1.2-5.824.566a29.43,29.43,0,0,1-3.05,2.25c-1.127.83-1.889,1.816-1.359,3.326l-5.31,11.921" transform="translate(294.998 982.214)" fill="#9d0c1a"/>
    <path id="Path_306" data-name="Path 306" d="M304.766,78.061l.39-.092c1.17.106,2.1.845,3.176,1.2.447.149.88.463.776.955-.334,1.586.127,3.322-.894,4.775.008-1.077-.04-2.158.038-3.229.1-1.359-.139-2.343-1.768-2.528a2.3,2.3,0,0,1-1.719-1.085" transform="translate(124.807 1128.788)" fill="#fb974c"/>
    <path id="Path_310" data-name="Path 310" d="M123.12,77.6c1.562.664,2.338,2.155,3.264,3.382,4.484,5.937,6.659,12.688,7.438,20.1a42.352,42.352,0,0,1-1.371,16.326,38.052,38.052,0,0,1-6.037,12.628c-4.01,5.287-8.542,9.882-14.465,13.11a42.984,42.984,0,0,1-13.22,4.785,44.032,44.032,0,0,1-19.361-.838,34.585,34.585,0,0,1-10.388-4.376,50.035,50.035,0,0,1-10.669-9.492c-.583-.708-1.7-1.006-1.734-2.153a49.482,49.482,0,0,0,5.678-4.669,3.291,3.291,0,0,1,2.557-1.065c1.677.3,2.441,1.792,3.482,2.829a31.829,31.829,0,0,0,19.02,9.521,31.217,31.217,0,0,0,20.743-4.633,31.765,31.765,0,0,0,13.9-18.1,20.474,20.474,0,0,0,.929-6.278c.016-1.97-.1-3.946.023-5.91.3-5.006-1.737-9.283-4.1-13.446-1.031-1.814-2.3-3.495-3.243-5.367a1.211,1.211,0,0,1,.291-1.05c1.886-2.009,4.206-3.519,6.236-5.365a.752.752,0,0,1,1.031.062" transform="translate(297.375 1129.211)" fill="#ffaa23"/>
    <path id="Path_311" data-name="Path 311" d="M45.384,116.577c-2.261.55-3.338,2.693-5.158,3.85-.938.6-1.686,1.5-2.908,1.557a47.948,47.948,0,0,1-5.66-10.218,47.855,47.855,0,0,1-2.358-9.923,40.7,40.7,0,0,1,.471-14.154,32.661,32.661,0,0,1,3.572-10.153,56.642,56.642,0,0,1,4.617-7.572,24.766,24.766,0,0,1,4.283-4.487,1.877,1.877,0,0,0,.843-1.191c3.538.033,7.258,3.648,7.638,7.419a2.976,2.976,0,0,1-1.123,1.7,30.78,30.78,0,0,0-9.172,16.315,32.176,32.176,0,0,0,1.97,19.931c.723,1.62,1.72,3.1,2.583,4.654.387.7,1.008,1.381.4,2.265" transform="translate(316.634 1138.3)" fill="#ffce55"/>
    <path id="Path_312" data-name="Path 312" d="M159.955,43.964c-1.7.272-2.379,1.906-3.631,2.793-1.344.952-2.852,1.822-3.725,3.34-.792.434-1.161-.225-1.576-.65a31.483,31.483,0,0,0-18.7-9.366,32.372,32.372,0,0,0-19.207,3.341c-.726.364-1.4.913-2.3.7-.951-.994-.012-1.628.523-2.211a10.589,10.589,0,0,1,5.175-2.75,11.506,11.506,0,0,1-5.132-2.668c-.949-.815-2.007-1.6-1.807-3.1,3.7-2.35,7.9-3.2,12.123-3.934a43.039,43.039,0,0,1,13.066.047,59.069,59.069,0,0,1,7.152,1.838c.525.053,1.093-.06,1.51.4l.73.074c.294.194.552.433.829.649,2.638.38,4.388,2.41,6.6,3.587,2.863,1.525,5.137,3.842,7.425,6.111a2.569,2.569,0,0,1,.943,1.793" transform="translate(260.539 1162.845)" fill="#ffce55"/>
    <path id="Path_313" data-name="Path 313" d="M83.349,35.911c1.422,3.368,4.348,4.686,7.87,5.6-2.621,1.415-5.808,1.715-6.914,4.845q-.013.124-.026.249a8.331,8.331,0,0,1-.64,1.1,12.8,12.8,0,0,0-1.4,3.1c-.15.438-.2,1.112-.906.987-.564-.1-.775-.629-.826-1.15a6.522,6.522,0,0,0-.267-1.291c-.892-3.947-3.7-5.931-7.291-7.107L71.831,41.5c4.946-1.062,7.858-4.179,9.423-8.9,1.005,1.124.876,2.664,2.1,3.314" transform="translate(286.768 1160.335)" fill="#fff"/>
    <path id="Path_316" data-name="Path 316" d="M73.873,70.35c.822.424.622,1.424,1.141,2.257.668-1.647.86-3.3,2.074-4.442a1.476,1.476,0,0,0,.855-.768l-.007-.05c1.758.056,2.992-1.227,4.471-1.848a32.8,32.8,0,0,1,26.655.236A28.448,28.448,0,0,1,119,72.823c.295.328.481.755,1,.774a44.869,44.869,0,0,1,7.522,14.769,5.672,5.672,0,0,1,.107,1.511c.009,3.114-.053,6.229.019,9.342.132,5.64-2.479,10.3-5.317,14.84a30.433,30.433,0,0,1-6.43,6.92,33.09,33.09,0,0,1-14.6,6.789A29.92,29.92,0,0,1,87.07,127.3a34.7,34.7,0,0,1-12.606-6.646c-2.009-1.574-3.255-3.935-5.585-5.126-.259-1.958-1.617-3.409-2.524-5.021a29.545,29.545,0,0,1-3.576-12.374C62.05,88.994,65,81,70.68,73.932a12.71,12.71,0,0,1,2.094-1.91,2.2,2.2,0,0,0,1.1-1.672" transform="translate(293.138 1139.346)" fill="#fb974c"/>
    <path id="Path_317" data-name="Path 317" d="M110.85,77.9c.086.667-.272.842-.854.768.081-.482.28-.834.854-.768" transform="translate(260.232 1128.838)" fill="#ffce55"/>
    <path id="Path_318" data-name="Path 318" d="M106.908,79.279c14.087-.567,27.654,12.423,27.5,27.946-.141,14.5-12.9,28.05-28.849,27.53-14.243-.464-27.016-13.124-26.736-28.37.27-14.733,12.825-27.68,28.082-27.105" transform="translate(281.907 1127.89)" fill="#ffce55"/>
    <path id="Path_319" data-name="Path 319" d="M130.778,149.3v-2.86q1.3-.13,2.21-.26t1.473-.217q.866-.086,1.386-.173a7.7,7.7,0,0,0,.823-.173q1.082-.433,1.256-.91a6.45,6.45,0,0,0,.3-2.513V126.681q0-2.469-.346-2.729h.043a7.385,7.385,0,0,0-2.383-.217q-1.084,0-2.318.087t-2.621.217v-2.21l16.679-4.2v24.78q0,.867.043,1.473a2.466,2.466,0,0,0,.173.866q.346.78,3.552,1.257h.13q.476.087,1.56.216t1.949.217v2.86Zm23.481-.39v-2.123l-1.754-.173q-.888-.086-1.365-.173h-.13a17.419,17.419,0,0,1-2.664-.65,2.077,2.077,0,0,1-1.235-.867,9.4,9.4,0,0,1-.217-2.513v-24.26l-15.9,3.986v1.473a41.177,41.177,0,0,1,4.549-.26,6.257,6.257,0,0,1,2.513.3v-.043q.562.3.563,3.076v15.509a7.763,7.763,0,0,1-.3,2.729,2.432,2.432,0,0,1-1.56,1.04c-.232.059-.535.13-.91.217a11.842,11.842,0,0,1-1.343.217q-1,.174-3.292.39v2.123Zm-22.658-.433v-1.3a25.57,25.57,0,0,0,2.989-.39,20.756,20.756,0,0,0,2.3-.39,2.619,2.619,0,0,0,1.776-1.343,6.77,6.77,0,0,0,.39-2.859V126.681q0-2.9-.736-3.422a7.5,7.5,0,0,0-2.773-.3q-1.127,0-2.144.043t-2.015.13v-.693l15.076-3.769v23.74a7.167,7.167,0,0,0,.3,2.643q.52,1.257,4.159,1.776.52.087,1.256.173t1.69.173v1.3Z" transform="translate(245.902 1101.213)" fill="#040504"/>
  </g>
</svg>
