<svg xmlns="http://www.w3.org/2000/svg" width="103.676" height="135.104" viewBox="0 0 103.676 135.104">
  <g id="Group_307" data-name="Group 307" transform="translate(-712.25 -1183)">
    <path id="Path_320" data-name="Path 320" d="M471.845,30.691l-.1,1.5a2.212,2.212,0,0,0,.742,3.093l1.224.815c.711.534,1.239,1.273,1.979,1.774h0a13.638,13.638,0,0,1,2.221,1.963c.022,2.542-1.715,4.432-2.542,6.66a2.817,2.817,0,0,0,.21,2.965c1.121,1.606,2.109,3.3,3.236,4.907a1.439,1.439,0,0,1-.171,2.163c-.318.3-.524.744-.875.984-4.335,2.952-4.289,6.809-2.307,11.061.692,1.484.417,2.5-1.16,3.2-.958.422-1.75,1.254-2.723,1.6-2.938,1.056-3.459,3.236-3.269,6.009.1,1.493.534,3.257-.276,4.479-.854,1.288-2.811.846-4.219,1.394a11.261,11.261,0,0,1-2.4.6,2.32,2.32,0,0,0-2.26,2.123,17.672,17.672,0,0,1-1.543,5.653,2.076,2.076,0,0,1-2.539,1.484c-.187-.034-.377-.061-.565-.089-3.988-.584-7.361-.279-9.535,4.036-1.535,3.048-2.21,3.212-5.207,1.7-3.987-2.012-7-1.235-10,1.76-1.654,1.652-2.6,1.514-4.614.337a21.331,21.331,0,0,1-3.278-2.611,3.117,3.117,0,0,0-3.687-.566c-1.507.686-3.125,1.083-4.658,1.705a2.144,2.144,0,0,1-2.934-.957c-.711-1.131-1.6-2.145-2.3-3.276a4.264,4.264,0,0,0-4.433-2.264c-1.321.14-2.668-.025-3.991.247a2.265,2.265,0,0,1-2.838-1.62A11.979,11.979,0,0,1,396,89.486c-.136-2.406-1.437-3.644-3.807-3.912-.747-.084-1.458-.454-2.2-.59-4.464-.819-3.536-.574-3.6-4.631-.083-5.154-.016-5.155-4.62-7.779-.055-.031-.115-.053-.17-.085-3.079-1.79-3.191-1.867-1.927-5.174.5-1.309.5-2.716,1.161-3.987.6-1.159-.379-2.025-1.045-2.817-1.14-1.356-2.36-2.647-3.589-3.924a1.518,1.518,0,0,1-.241-2.29c1.413-2.025,3.388-4.076,3.715-6.322.317-2.176-1.612-4.416-2.63-6.589a1.712,1.712,0,0,1,.516-2.448,28.148,28.148,0,0,1,3.159-2.675c2.28-1.246,2.695-2.894,2.124-5.163-.2-.794-.2-1.637-.32-2.452-.586-3.913-.889-2.817,2.928-4.691a5.837,5.837,0,0,1,1.264-.4c2.98-.685,4.015-2.654,4.3-5.594.457-4.7.619-4.829,5.384-5.09,2.922-.16,5.058-.887,6.048-3.95a8.383,8.383,0,0,1,2.375-4.02c1.218-.93,2.853.4,4.333.563a3.087,3.087,0,0,1,.943.094c3.227,1.549,4.931-.707,6.644-2.72,2.6-3.056,2.732-3.352,5.887-1.211,3.328,2.257,6.126,2.292,9.464.032,3.419-2.315,3.1-2.406,5.6.968,2.739,3.7,5.935,3.673,9.6,2.448,1.862-.622,3.1-.516,3.879,1.556.64,1.708,1.584,3.3,2.394,4.946,1.22.994,2.722.642,4.1.89a9.062,9.062,0,0,1,1.984.5l2.257.129c1.716.22,1.5,1.509,1.492,2.688l.14,1.141c.155,1.127.633,2.169.766,3.318a3.223,3.223,0,0,0,2.215,2.64,5.3,5.3,0,0,1,2.065.923,1.069,1.069,0,0,0,.3.225c3.707,1.486,4.2,2.581,2.965,6.652" transform="translate(336.713 1183)" fill="#c39d5e"/>
    <path id="Path_321" data-name="Path 321" d="M577.7,300.626q5.505,13.891,11.028,27.775c.54,1.349,0,1.492-1.144,1.407-5.893-.437-11.792-.807-17.683-1.279a3.067,3.067,0,0,0-2.826,1.091c-3.788,4.2-7.647,8.329-11.469,12.494-1.518,1.654-1.536,1.67-2.336-.359-2.537-6.438-5.054-12.885-7.6-19.318-.217-.547-.183-1.311-.977-1.5-1-1-.72-1.975.154-2.818a36.219,36.219,0,0,1,5.936-4.418,3.156,3.156,0,0,1,3.11.153,37.935,37.935,0,0,0,4.5,1.517,1.963,1.963,0,0,0,2.464-.846c.972-1.41,2.073-2.731,2.983-4.18a2.528,2.528,0,0,1,2.364-1.281,45.737,45.737,0,0,1,5.513.076,2.056,2.056,0,0,0,2.532-1.643c.519-1.5.9-3.041,1.467-4.523.387-1.011.753-2.049,1.99-2.344" transform="translate(219.544 973.972)" fill="#c21c25"/>
    <path id="Path_322" data-name="Path 322" d="M438.572,339.95,433.8,351.226c-3.376-3.9-6.52-7.531-9.667-11.161a19.952,19.952,0,0,1-2.231-2.6c-1.179-1.971-2.832-2.325-4.981-2.171-4.814.346-9.643.48-14.466.682-1,.042-2.013.006-3.378.006l11.108-25.152c1.258-.076,1.8.74,2.179,1.754.594,1.607,1.263,3.189,1.706,4.849a2.125,2.125,0,0,0,2.365,1.738c1.65-.038,3.3.014,4.953-.01a3.693,3.693,0,0,1,3.276,1.574c.674.921,1.406,1.8,2.048,2.747,1.762,2.6,1.768,2.6,4.79,1.5,1.134-.412,2.233-.922,3.4-1.238,2.547-.689,4.061.441,4.186,3.095.206,4.385-.314,8.74-.514,13.109" transform="translate(320.347 966.878)" fill="#c21c25"/>
    <path id="Path_323" data-name="Path 323" d="M463.921,324.613c-.8-1.632-.486-3.382-.256-5.017a69.647,69.647,0,0,0,.209-8.927,2.151,2.151,0,0,0-3-1.9,43.235,43.235,0,0,0-5.52,2.044,1.887,1.887,0,0,1-2.718-.79c-1.077-1.485-2.2-2.939-3.186-4.485a2.413,2.413,0,0,0-2.38-1.192c-1.968.057-3.941-.021-5.908.062a1.635,1.635,0,0,1-1.956-1.28c-.531-1.752-1.268-3.443-1.776-5.2a3.745,3.745,0,0,0-1.893-2.427l2.178-5.226a15.116,15.116,0,0,1,1.474,3.9,1.712,1.712,0,0,0,2.149,1.31c1.446-.167,2.93-.073,4.357-.322,2.2-.384,3.586.5,4.647,2.342.725,1.259,1.693,2.376,2.476,3.6a1.512,1.512,0,0,0,2.224.65,31.229,31.229,0,0,0,3.009-1.163c3.034-1.84,5.495-.913,7.616,1.484a16.354,16.354,0,0,0,2.622,1.839c.858.668,1.666-.02,2.346-.515,1.434-1.046,2.859-2.116,4.2-3.282a2.39,2.39,0,0,1,2.781-.439c1.761.717,3.6,1.247,5.346,2a1.79,1.79,0,0,0,2.529-.816c1.027-1.526,2.209-2.952,3.173-4.513a2.187,2.187,0,0,1,2.308-1.217c2.02.181,4.068-.073,6.077.323,1.124.222,1.6-.345,1.923-1.323.591-1.8,1.261-3.576,1.9-5.362l1.382,3.612c-1.989,2.006-2.078,4.829-3.059,7.263-.576,1.43-.99,2.15-2.82,1.785a32.771,32.771,0,0,0-6.079-.128,1.193,1.193,0,0,0-1.22.658,29.54,29.54,0,0,1-1.994,2.761c-2.82,3.782-3.26,3.993-7.608,1.827-2.211-1.1-3.983-1.2-5.824.566a29.428,29.428,0,0,1-3.05,2.25c-1.127.83-1.889,1.816-1.359,3.326l-5.31,11.921" transform="translate(294.998 982.215)" fill="#9d0c1a"/>
    <path id="Path_324" data-name="Path 324" d="M498.657,77.6c1.562.664,2.338,2.155,3.264,3.382,4.484,5.937,6.659,12.688,7.439,20.1a42.354,42.354,0,0,1-1.371,16.326,38.053,38.053,0,0,1-6.038,12.628c-4.01,5.287-8.542,9.882-14.465,13.11a42.984,42.984,0,0,1-13.22,4.785,44.032,44.032,0,0,1-19.361-.838,34.584,34.584,0,0,1-10.388-4.376,50.043,50.043,0,0,1-10.669-9.492c-.582-.708-1.7-1.006-1.734-2.153a49.482,49.482,0,0,0,5.678-4.669,3.291,3.291,0,0,1,2.557-1.065c1.677.3,2.441,1.792,3.482,2.829a31.83,31.83,0,0,0,19.02,9.521,31.217,31.217,0,0,0,20.743-4.633,31.765,31.765,0,0,0,13.9-18.1,20.475,20.475,0,0,0,.929-6.278c.016-1.97-.1-3.946.023-5.91.3-5.006-1.737-9.283-4.1-13.446-1.031-1.814-2.3-3.495-3.243-5.367a1.211,1.211,0,0,1,.291-1.05c1.886-2.009,4.206-3.519,6.236-5.365a.752.752,0,0,1,1.031.062" transform="translate(297.375 1129.211)" fill="#f8e7c7"/>
    <path id="Path_325" data-name="Path 325" d="M420.921,116.577c-2.261.55-3.338,2.693-5.158,3.85-.938.6-1.687,1.5-2.908,1.557a47.945,47.945,0,0,1-5.66-10.218,47.857,47.857,0,0,1-2.358-9.923,40.7,40.7,0,0,1,.471-14.154,32.661,32.661,0,0,1,3.572-10.153,56.64,56.64,0,0,1,4.617-7.572,24.764,24.764,0,0,1,4.283-4.487,1.877,1.877,0,0,0,.843-1.191c3.538.033,7.258,3.648,7.638,7.419a2.976,2.976,0,0,1-1.123,1.7,30.779,30.779,0,0,0-9.172,16.315,32.176,32.176,0,0,0,1.97,19.931c.723,1.62,1.72,3.1,2.583,4.654.387.7,1.008,1.381.4,2.265" transform="translate(316.634 1138.3)" fill="#dece93"/>
    <path id="Path_326" data-name="Path 326" d="M535.492,43.964c-1.7.272-2.379,1.906-3.631,2.793-1.344.952-2.852,1.822-3.725,3.34-.792.434-1.161-.225-1.576-.65a31.483,31.483,0,0,0-18.7-9.366,32.372,32.372,0,0,0-19.207,3.341c-.726.364-1.4.913-2.3.7-.951-.994-.012-1.628.522-2.211a10.592,10.592,0,0,1,5.176-2.75,11.506,11.506,0,0,1-5.132-2.668c-.949-.815-2.007-1.6-1.807-3.1,3.7-2.35,7.9-3.2,12.123-3.934a43.038,43.038,0,0,1,13.066.047,59.07,59.07,0,0,1,7.152,1.838c.525.053,1.093-.06,1.51.4l.73.074c.294.194.552.433.829.649,2.638.38,4.389,2.41,6.6,3.587,2.863,1.525,5.137,3.842,7.425,6.111a2.569,2.569,0,0,1,.943,1.793" transform="translate(260.539 1162.845)" fill="#dece93"/>
    <path id="Path_327" data-name="Path 327" d="M458.886,35.911c1.422,3.368,4.348,4.686,7.871,5.6-2.621,1.415-5.808,1.715-6.914,4.845q-.013.124-.026.249a8.33,8.33,0,0,1-.64,1.1,12.807,12.807,0,0,0-1.4,3.1c-.15.438-.2,1.112-.906.987-.564-.1-.775-.629-.826-1.15a6.523,6.523,0,0,0-.267-1.291c-.892-3.947-3.7-5.931-7.291-7.107l-1.121-.756c4.946-1.062,7.858-4.179,9.423-8.9,1.005,1.124.876,2.664,2.1,3.314" transform="translate(286.768 1160.335)" fill="#fff"/>
    <path id="Path_328" data-name="Path 328" d="M449.41,70.35c.822.424.622,1.424,1.141,2.257.668-1.647.86-3.3,2.074-4.442a1.476,1.476,0,0,0,.855-.768l-.007-.05c1.758.056,2.992-1.227,4.471-1.848a32.8,32.8,0,0,1,26.655.236,28.448,28.448,0,0,1,9.936,7.089c.295.328.481.755,1,.774a44.869,44.869,0,0,1,7.522,14.769,5.673,5.673,0,0,1,.107,1.511c.009,3.114-.053,6.229.019,9.342.132,5.64-2.479,10.3-5.317,14.84a30.432,30.432,0,0,1-6.43,6.92,33.09,33.09,0,0,1-14.6,6.789,29.92,29.92,0,0,1-14.227-.464A34.7,34.7,0,0,1,450,120.657c-2.009-1.574-3.255-3.935-5.585-5.126-.259-1.958-1.617-3.409-2.524-5.021a29.545,29.545,0,0,1-3.576-12.374c-.729-9.143,2.22-17.138,7.9-24.2a12.709,12.709,0,0,1,2.094-1.91,2.2,2.2,0,0,0,1.1-1.672" transform="translate(293.138 1139.346)" fill="#f9cba1"/>
    <path id="Path_329" data-name="Path 329" d="M486.388,77.9c.086.667-.272.842-.854.768.081-.482.28-.834.854-.768" transform="translate(260.231 1128.838)" fill="#dece93"/>
    <path id="Path_330" data-name="Path 330" d="M482.446,79.279c14.087-.567,27.654,12.423,27.5,27.946-.141,14.5-12.9,28.05-28.849,27.53-14.243-.464-27.016-13.124-26.735-28.371.27-14.733,12.824-27.68,28.082-27.105" transform="translate(281.907 1127.89)" fill="#dece93"/>
    <path id="Path_331" data-name="Path 331" d="M526.557,149.423a6.5,6.5,0,0,0-1.213-.693,3.057,3.057,0,0,0-1.213-.26h-20.4q3.812-3.9,6.26-6.607t3.7-4.354q4.722-6.368,4.722-11.22,0-4.332-3.206-4.332a3.988,3.988,0,0,0-2.383.78,5.334,5.334,0,0,0-1.776,2.426q-.13.347-.39,1.256t-.606,2.426l-1.43-.043L506.8,120.44a26.676,26.676,0,0,1,5.87-3.011,16.91,16.91,0,0,1,5.654-1.018,9.861,9.861,0,0,1,7.083,2.491,9.251,9.251,0,0,1,2.621,7.04,12.776,12.776,0,0,1-2.9,7.582q-.737.953-2.079,2.382t-3.336,3.379l-1.516,1.473h3.726q4.115,0,5.329-2.512h1.993Zm2.209-10.787h-1.213q-1.213,2.513-5.632,2.513H517.2l2.21-2.123q2.036-1.95,3.357-3.379t2.015-2.339a12.5,12.5,0,0,0,2.816-7.365,8.855,8.855,0,0,0-2.491-6.715,9.4,9.4,0,0,0-6.78-2.383,19.844,19.844,0,0,0-11.047,3.769l1.689,7.928h.736q.39-1.646.628-2.469t.325-1.083v.043a5.751,5.751,0,0,1,1.906-2.643,4.452,4.452,0,0,1,2.643-.866q3.6,0,3.6,4.765,0,5.112-4.765,11.48-1.257,1.647-3.553,4.2t-5.8,6.108h19.452a3.636,3.636,0,0,1,2.209.736Zm-2.686,9.444a3.55,3.55,0,0,0-1.949-.433H505.675q3.119-3.206,5.264-5.588t3.4-4.029q4.852-6.541,4.852-11.74,0-5.155-3.986-5.155a4.491,4.491,0,0,0-2.859.953,5.9,5.9,0,0,0-2.08,2.773q-.13.347-.347,1.191t-.563,2.231l-1.646-7.495a19.332,19.332,0,0,1,10.614-3.552,9.022,9.022,0,0,1,6.5,2.274,8.474,8.474,0,0,1,2.383,6.433,12.034,12.034,0,0,1-2.729,7.105q-.737.91-2.058,2.317t-3.271,3.358l-2.946,2.859h5.719q4.679,0,5.849-2.512h.433Z" transform="translate(247.582 1102.059)" fill="#040504"/>
  </g>
</svg>
